<?xml version="1.0" encoding="UTF-8" standalone="no"?>
<svg width="14px" height="10px" viewBox="0 0 14 10" version="1.1" xmlns="http://www.w3.org/2000/svg" xmlns:xlink="http://www.w3.org/1999/xlink">
    <!-- Generator: Sketch 3.6 (26304) - http://www.bohemiancoding.com/sketch -->
    <title>Group 9</title>
    <desc>Created with Sketch.</desc>
    <defs></defs>
    <g id="Page-1" stroke="none" stroke-width="1" fill="none" fill-rule="evenodd">
        <g id="Group-9" fill="#0077CC">
            <path d="M7,8 C5.343,8 4,6.657 4,5 C4,3.343 5.343,2 7,2 C8.657,2 10,3.343 10,5 C10,6.657 8.657,8 7,8 M7,0 C2,0 0,5 0,5 C0,5 2,10 7,10 C12,10 14,5 14,5 C14,5 12,0 7,0" id="Fill-1"></path>
            <path d="M7,3 C5.896,3 5,3.896 5,5 C5,6.104 5.896,7 7,7 C8.104,7 9,6.104 9,5 C9,3.896 8.104,3 7,3" id="Fill-3"></path>
        </g>
    </g>
</svg>