<?xml version="1.0" encoding="utf-8"?>
<!-- Generator: Adobe Illustrator 22.1.0, SVG Export Plug-In . SVG Version: 6.00 Build 0)  -->
<svg version="1.1" id="Layer_1" xmlns="http://www.w3.org/2000/svg" xmlns:xlink="http://www.w3.org/1999/xlink" x="0px" y="0px"
	 viewBox="0 0 150 150" style="enable-background:new 0 0 150 150;" xml:space="preserve">
<style type="text/css">
	.st0{opacity:0.25;}
	.st1{fill:none;stroke:#1262B3;stroke-width:2;stroke-linecap:round;stroke-miterlimit:10;stroke-dasharray:0.2511,4.0181;}
	.st2{opacity:0.5;}
	.st3{fill:#1262B3;}
</style>
<g class="st0">
	<circle class="st1" cx="75" cy="75" r="59.8"/>
</g>
<g class="st2">
	<path class="st3" d="M36.5,70.4h1l2.8,4.9l0.9,1.6h0c0-0.8-0.1-1.7-0.1-2.5v-4.1h0.9v7.9h-1l-2.9-5l-0.9-1.6h0
		c0.1,0.8,0.1,1.6,0.1,2.5v4.1h-0.9V70.4z"/>
	<path class="st3" d="M43.8,74.3c0-2.5,1.4-4,3.4-4s3.4,1.5,3.4,4c0,2.5-1.4,4.1-3.4,4.1S43.8,76.8,43.8,74.3z M49.4,74.3
		c0-2-0.9-3.2-2.3-3.2s-2.3,1.2-2.3,3.2c0,2,0.9,3.2,2.3,3.2S49.4,76.2,49.4,74.3z"/>
	<path class="st3" d="M54,77.2l0.6-0.7c0.6,0.6,1.4,1,2.2,1c1,0,1.6-0.5,1.6-1.3c0-0.8-0.6-1.1-1.3-1.4L56,74.3
		c-0.7-0.3-1.6-0.9-1.6-2c0-1.2,1-2.1,2.5-2.1c0.9,0,1.8,0.4,2.3,1l-0.5,0.6c-0.5-0.5-1.1-0.7-1.8-0.7c-0.9,0-1.5,0.4-1.5,1.2
		c0,0.8,0.7,1,1.3,1.3l1.1,0.5c0.9,0.4,1.6,0.9,1.6,2.1c0,1.2-1,2.2-2.7,2.2C55.7,78.4,54.7,77.9,54,77.2z"/>
	<path class="st3" d="M62.4,71.2H60v-0.8h5.8v0.8h-2.4v7h-1V71.2z"/>
	<path class="st3" d="M67.2,70.4h2.5c1.6,0,2.8,0.6,2.8,2.2c0,1.2-0.7,2-1.8,2.2l2,3.4h-1.1l-1.9-3.3h-1.4v3.3h-1V70.4z M69.5,74.1
		c1.2,0,1.9-0.5,1.9-1.5c0-1-0.7-1.4-1.9-1.4h-1.3v2.9H69.5z"/>
	<path class="st3" d="M74,75v-4.6h1V75c0,1.9,0.8,2.5,1.8,2.5c1,0,1.9-0.6,1.9-2.5v-4.6h1V75c0,2.5-1.2,3.4-2.8,3.4S74,77.5,74,75z"
		/>
	<path class="st3" d="M81.3,74.3c0-2.5,1.5-4.1,3.5-4.1c1,0,1.7,0.5,2.2,1l-0.5,0.6c-0.4-0.4-0.9-0.7-1.6-0.7
		c-1.5,0-2.5,1.2-2.5,3.2c0,2,0.9,3.2,2.4,3.2c0.8,0,1.3-0.3,1.8-0.9l0.6,0.6c-0.6,0.7-1.4,1.1-2.4,1.1
		C82.8,78.4,81.3,76.9,81.3,74.3z"/>
	<path class="st3" d="M90,71.2h-2.4v-0.8h5.8v0.8H91v7h-1V71.2z"/>
	<path class="st3" d="M94.8,75v-4.6h1V75c0,1.9,0.8,2.5,1.8,2.5c1,0,1.9-0.6,1.9-2.5v-4.6h1V75c0,2.5-1.2,3.4-2.8,3.4
		S94.8,77.5,94.8,75z"/>
	<path class="st3" d="M102.6,70.4h2.5c1.6,0,2.8,0.6,2.8,2.2c0,1.2-0.7,2-1.8,2.2l2,3.4h-1.1l-1.9-3.3h-1.4v3.3h-1V70.4z
		 M104.9,74.1c1.2,0,1.9-0.5,1.9-1.5c0-1-0.7-1.4-1.9-1.4h-1.3v2.9H104.9z"/>
	<path class="st3" d="M109.4,70.4h4.5v0.8h-3.5v2.5h3v0.9h-3v2.9h3.7v0.9h-4.7V70.4z"/>
</g>
</svg>
