<svg
  version="1.1"
  id="Layer_1"
  xmlns="http://www.w3.org/2000/svg"
  xmlns:xlink="http://www.w3.org/1999/xlink"
  x="0px"
  y="0px"
	viewBox="0 0 283.5 283.5"
  style="enable-background:new 0 0 283.5 283.5"
  xml:space="preserve"
>
  <style type="text/css">
    .vault_icon_blue__background{fill:#1C64B0;}
    .vault_icon_blue__strokes{fill:#FFFFFF;}
    .vault_icon_blue__fill{fill:#1C64B0;}
  </style>
  <g>
    <rect
      class="vault_icon_blue__background"
      x="0"
      y="0"
      width="283.5"
      height="283.5"
      rx="40"
      ry="40"
    />
  </g>
  <g>
    <path class="vault_icon_blue__strokes" d="M141.4,123c13.3-10.1,32.4-7.6,42.6,5.7c10.1,13.3,7.6,32.4-5.7,42.6c-13.3,10.1-32.4,7.6-42.6-5.8
      C125.5,152.3,128.1,133.2,141.4,123z M170.6,161.4c7.8-6,9.3-17.2,3.4-25c-6-7.8-17.2-9.3-25-3.4c-7.8,6-9.3,17.2-3.4,25
      C151.6,165.8,162.8,167.4,170.6,161.4z M58.1,174.3c7,5.5,16.9,5.5,23.9,0.1c1-0.8,1.9-1.6,2.8-2.6l17.1-2.2
      c2.1,5.4,4.9,10.4,8.4,15c17.3,22.6,47.2,30.3,72.8,19.8l10.6,13.9c-0.3,4.7,1.1,9.3,3.9,13.1c3.2,4.2,7.8,6.9,12.9,7.6
      c5.2,0.7,10.4-0.6,14.6-3.8c4.1-3.2,6.8-7.7,7.5-12.9c1.4-10.3-5.4-19.8-15.4-21.9L207,186.9c18.4-21.8,19.7-54.1,1.9-77.4
      c-3.5-4.6-7.6-8.6-12.2-12.1l6.7-16c1.1-0.6,2.2-1.2,3.2-2c7-5.3,9.6-14.8,6.3-23c-2-4.9-5.7-8.6-10.5-10.7c-4.8-2-10.2-2.1-15-0.1
      c-1.6,0.7-3.1,1.5-4.5,2.6c-6.7,5.1-9.3,13.9-6.7,21.7l-6.6,15.8c-16.6-2.7-33.8,1.5-47.4,11.9c-13.6,10.4-22.2,25.8-24,42.5
      l-17,2.2c-6.9-4.6-16.1-4.4-22.8,0.7c-1.3,1-2.6,2.2-3.6,3.6c-3.2,4.1-4.6,9.3-4,14.5C51.4,166.4,54,171.1,58.1,174.3z M64.1,150
      c4.6-3.5,11.3-2.6,14.8,2c0.2,0.3,0.3,0.5,0.5,0.8l28.8-3.7c-0.6-16.2,6.3-32.4,20.2-43c13.9-10.6,31.4-13,46.9-8.1l11.5-27.4
      c-0.1-0.1-0.3-0.3-0.4-0.5c-3.5-4.6-2.6-11.3,2-14.8c4.6-3.5,11.3-2.6,14.8,2s2.6,11.3-2,14.8c-1.7,1.3-3.6,1.9-5.6,2L184,101.8
      c6.3,3.4,12,8,16.6,14.1c16.5,21.7,13.1,52.3-7.1,69.9l17.9,23.5c3.8-0.7,7.8,0.6,10.3,3.9c3.5,4.6,2.6,11.3-2,14.8
      c-4.6,3.5-11.3,2.6-14.8-2c-2.5-3.3-2.7-7.5-1.1-10.9l-18.1-23.7c-22.2,13.1-51.1,7.9-67.1-13.1c-4.6-6-7.6-12.8-9.2-19.7
      l-29.2,3.8c-0.7,1.7-1.8,3.3-3.4,4.5c-4.6,3.5-11.3,2.6-14.8-2C58.6,160.2,59.4,153.5,64.1,150z"
      transform="translate(-18, -5)"
    />
    <path class="vault_icon_blue__fill" d="M169.8,162c8.1-5.5,10.3-16.6,4.7-24.8c-5.5-8.1-16.6-10.3-24.8-4.7c-8.1,5.5-10.3,16.6-4.7,24.8
      C150.5,165.4,161.7,167.5,169.8,162z"
      transform="translate(-18, -5)"
    />
    <path class="vault_icon_blue__fill" d="M211.4,209.3l-17.9-23.5c20.3-17.7,23.7-48.2,7.1-69.9c-4.6-6-10.3-10.7-16.6-14.1l11.5-27.6
      c2-0.2,3.9-0.8,5.6-2c4.6-3.5,5.5-10.2,2-14.8c-3.5-4.6-10.2-5.5-14.8-2c-4.6,3.5-5.5,10.2-2,14.8c0.1,0.2,0.3,0.3,0.4,0.5
      L175.3,98c-15.5-4.9-33-2.5-46.9,8.1c-13.9,10.6-20.8,26.8-20.2,43l-28.8,3.7c-0.2-0.3-0.3-0.5-0.5-0.8c-3.5-4.6-10.2-5.5-14.8-2
      c-4.6,3.5-5.5,10.2-2,14.8c3.5,4.6,10.2,5.5,14.8,2c1.6-1.2,2.7-2.8,3.4-4.5l29.2-3.8c1.6,6.9,4.6,13.7,9.2,19.7
      c16,21,44.9,26.2,67.1,13.1l18.1,23.7c-1.6,3.5-1.4,7.7,1.1,10.9c3.5,4.6,10.2,5.5,14.8,2c4.6-3.5,5.5-10.2,2-14.8
      C219.2,209.9,215.2,208.6,211.4,209.3z M178.2,171.4c-13.3,10.2-32.4,7.6-42.6-5.8c-10.2-13.3-7.6-32.4,5.7-42.6
      c13.3-10.1,32.4-7.6,42.6,5.7C194.1,142.1,191.5,161.2,178.2,171.4z"
      transform="translate(-18, -5)"
    />
  </g>
</svg>
