<?xml version="1.0" encoding="UTF-8" standalone="no"?>
<svg width="108px" height="17px" viewBox="0 0 108 17" version="1.1" xmlns="http://www.w3.org/2000/svg" xmlns:xlink="http://www.w3.org/1999/xlink" xmlns:sketch="http://www.bohemiancoding.com/sketch/ns">
    <!-- Generator: Sketch 3.5.2 (25235) - http://www.bohemiancoding.com/sketch -->
    <title>Page 1</title>
    <desc>Created with Sketch.</desc>
    <defs></defs>
    <g id="Page-1" stroke="none" stroke-width="1" fill="none" fill-rule="evenodd" sketch:type="MSPage">
        <g sketch:type="MSLayerGroup" fill="#0077CC">
            <path d="M25.5061652,13.0847938 C26.4632931,12.0665646 27.6820997,10.3863979 27.6820997,7.85516875 C27.6820997,5.23362708 26.3542308,3.19929375 25.1478177,2.16087708 C23.9403423,1.12210625 22.2527095,0.210127083 19.7949128,0.210127083 L15.0368931,0.210127083 C14.4600669,0.210127083 14.3782702,0.324522917 14.3782702,0.877022917 L14.3782702,10.8131688 C14.3782702,11.3638979 14.463962,11.4474813 15.0050243,11.4496063 L17.1476734,11.4496063 C17.6883816,11.4474813 17.7740734,11.3638979 17.7740734,10.8131688 L17.7740734,3.39018958 L19.3813259,3.39018958 C20.5849062,3.39018958 21.5349521,3.58179375 22.4078046,4.26746042 C23.280657,4.95277292 24.0855226,6.11337708 24.0855226,7.85516875 C24.0855226,9.47052292 23.1202505,10.8602729 22.3635423,11.3950646 C21.6068341,11.9302104 20.7810767,12.2319604 18.6093915,12.2319604 L17.7740734,12.2319604 L8.30902426,12.2319604 C7.27009967,12.2319604 6.06404066,11.7857104 5.43055869,11.3277729 C4.21033574,10.4451896 3.70291279,9.11423125 3.70291279,7.64443958 C3.70291279,6.25468958 4.20785705,5.21698125 4.94225705,4.53910625 C5.77084721,3.77552292 6.85226361,3.24427292 7.94217836,3.24427292 C8.88018492,3.24427292 9.86776525,3.59277292 10.6892734,4.22850208 C10.6892734,4.22850208 10.712998,4.24585625 10.8139161,4.31775208 C11.1871357,4.60958542 11.3365652,4.45481458 11.5578767,4.22248125 L12.9742702,2.76012708 C13.1403423,2.59189792 13.4253915,2.31812708 13.0394243,1.97848125 L12.9756866,1.92712708 C11.2770767,0.473272917 9.78738492,0.00010625 7.79558164,0.00010625 C5.65434885,0.00010625 3.7209718,0.84266875 2.12328,2.46687708 C0.991935738,3.61650208 0.000106229508,5.51306458 0.000106229508,7.79035625 C0.000106229508,10.1310438 0.994414426,12.5535438 3.29357508,14.2039604 C4.45820459,15.0408563 6.02650623,15.4102521 7.79558164,15.4102521 L9.48321443,15.4102521 L19.9195554,15.4116688 C22.7742964,15.4116688 24.5518702,14.1030229 25.5061652,13.0847938" id="Fill-1" sketch:type="MSShapeGroup"></path>
            <path d="M40.2109141,13.0847937 C41.1666256,12.0665646 42.3854321,10.3863979 42.3854321,7.85516875 C42.3854321,5.23362708 41.0575633,3.19929375 39.8511502,2.16087708 C38.6436748,1.12210625 36.9563961,0.210127083 34.4968289,0.210127083 L29.7388092,0.210127083 C29.1633993,0.210127083 29.0801862,0.324522917 29.0801862,0.877022917 L29.0801862,10.8131687 C29.0801862,11.3638979 29.1662321,11.4474812 29.7069403,11.4496062 L31.8510059,11.4496062 C32.3917141,11.4474812 32.4774059,11.3638979 32.4774059,10.8131687 L32.4788223,10.8131687 L32.4788223,3.39018958 L34.0846584,3.39018958 C35.2868223,3.39018958 36.2382846,3.58179375 37.1097207,4.26746042 C37.9839895,4.95277292 38.7888551,6.11337708 38.7888551,7.85516875 C38.7888551,9.47052292 37.823583,10.8602729 37.0668748,11.3950646 C36.3101666,11.9302104 35.4844092,12.2319604 33.313078,12.2319604 L32.4788223,12.2319604 L27.3996354,12.2319604 C27.2020485,12.2319604 27.0859043,12.3654812 27.0288944,12.4462312 L26.9888813,12.5078562 C26.7218911,12.8917729 26.3221141,13.3713146 26.0027174,13.6957312 C25.56576,14.1398562 25.1907698,14.4795021 24.4992157,14.9275229 C24.424501,14.9732104 24.3731567,15.0553771 24.3731567,15.1495854 C24.3731567,15.2933771 24.4896551,15.4102521 24.633419,15.4102521 L34.6228879,15.4116687 C37.4762125,15.4116687 39.2537862,14.1030229 40.2109141,13.0847937" id="Fill-3" sketch:type="MSShapeGroup"></path>
            <path d="M44.3978439,10.760575 C44.3316275,10.6872625 44.2388538,10.641575 44.135103,10.641575 C43.9428275,10.641575 43.7877325,10.7967 43.7877325,10.9890125 L43.7877325,12.2317833 L42.1004538,12.2317833 C41.9039292,12.2317833 41.7877849,12.3653042 41.7325456,12.4464083 L41.6921784,12.5080333 C41.4241259,12.89195 41.0257652,13.3711375 40.7060144,13.6955542 C40.269057,14.1396792 39.8940669,14.479325 39.2025128,14.9277 C39.1263816,14.9733875 39.0768079,15.0555542 39.0768079,15.1497625 C39.0768079,15.2935542 39.1929521,15.4104292 39.3367161,15.4104292 L43.7877325,15.4118458 L43.7877325,16.6528458 C43.7877325,16.8451583 43.9428275,16.9999292 44.135103,16.9999292 C44.2374374,16.9999292 44.3287948,16.9556583 44.3921784,16.8851792 L47.0702243,14.1163042 C47.1421062,14.03945 47.1849521,13.9356792 47.1849521,13.8223458 C47.1849521,13.7129083 47.144939,13.6140958 47.0797849,13.53795 L44.3978439,10.760575 Z" id="Fill-5" sketch:type="MSShapeGroup"></path>
            <path d="M60.8523698,0.653685417 C60.7762387,0.542477083 60.6615108,0.486872917 60.5092485,0.486872917 L59.6767633,0.486872917 C59.4954649,0.486872917 59.3764879,0.56301875 59.3226649,0.71601875 L54.1383108,12.3766021 L54.0554518,12.3766021 L48.8710977,0.71601875 C48.8158584,0.56301875 48.6968813,0.486872917 48.5169993,0.486872917 L47.68416,0.486872917 C47.5308354,0.486872917 47.4175239,0.542477083 47.3399764,0.653685417 C47.2652616,0.76489375 47.2610125,0.889560417 47.3300616,1.02803958 L53.6167239,15.0424146 C53.6875436,15.1947062 53.8051043,15.2712062 53.9708223,15.2712062 L54.1797403,15.2712062 C54.3472289,15.2712062 54.4633731,15.1947062 54.5338387,15.0424146 L60.8633469,1.02803958 C60.9327502,0.889560417 60.928501,0.76489375 60.8523698,0.653685417" id="Fill-7" sketch:type="MSShapeGroup"></path>
            <path d="M63.9437902,10.1075979 L66.9840787,3.27749375 L67.1501508,3.27749375 L70.1904393,10.1075979 L63.9437902,10.1075979 Z M67.5456787,0.507910417 C67.4614033,0.35561875 67.3449049,0.278764583 67.1915803,0.278764583 L66.9840787,0.278764583 C66.8304,0.278764583 66.7128393,0.35561875 66.6299803,0.507910417 L60.3018885,14.5215771 C60.231423,14.6604104 60.2339016,14.7850771 60.3100328,14.8962854 C60.3875803,15.0078479 60.5008918,15.0630979 60.6559869,15.0630979 L61.4874098,15.0630979 C61.6669377,15.0630979 61.7859148,14.9869521 61.8415082,14.8343062 L63.3612984,11.3985354 L70.7520393,11.3985354 L72.2927213,14.8343062 C72.3479607,14.9869521 72.4655213,15.0630979 72.6468197,15.0630979 L73.4782426,15.0630979 C73.6315672,15.0630979 73.7466492,15.0078479 73.8224262,14.8962854 C73.897141,14.7850771 73.9028066,14.6604104 73.8337574,14.5215771 L67.5456787,0.507910417 Z" id="Fill-9" sketch:type="MSShapeGroup"></path>
            <path d="M86.4069049,0.486979167 L85.6172656,0.486979167 C85.5050164,0.486979167 85.4108262,0.525583333 85.3364656,0.601729167 C85.258918,0.677875 85.2213836,0.772083333 85.2213836,0.882583333 L85.2213836,9.60747917 C85.2213836,10.8151875 84.8633902,11.8146458 84.1495279,12.6062083 C83.4331869,13.3974167 82.4732262,13.7930208 81.2653967,13.7930208 C80.0703148,13.7930208 79.1216852,13.393875 78.4134885,12.5955833 C77.7052918,11.7976458 77.3511934,10.7875625 77.3511934,9.56604167 L77.3511934,0.882583333 C77.3511934,0.772083333 77.3122426,0.677875 77.2375279,0.601729167 C77.1603344,0.525583333 77.0675607,0.486979167 76.9556656,0.486979167 L76.1642557,0.486979167 C76.053777,0.486979167 75.9595869,0.528416667 75.8834557,0.611645833 C75.8062623,0.695229167 75.7701443,0.785895833 75.7701443,0.882583333 L75.7701443,9.6910625 C75.7701443,11.2876458 76.2818164,12.6164792 77.3097639,13.6782708 C78.3373574,14.7400625 79.6556656,15.2713125 81.2653967,15.2713125 C82.8878754,15.2713125 84.218577,14.7400625 85.2518361,13.6782708 C86.2865115,12.6164792 86.8038492,11.2876458 86.8038492,9.6910625 L86.8038492,0.882583333 C86.8038492,0.785895833 86.7638361,0.695229167 86.6891213,0.611645833 C86.6129902,0.528416667 86.5188,0.486979167 86.4069049,0.486979167" id="Fill-11" sketch:type="MSShapeGroup"></path>
            <path d="M98.4614754,13.6679292 L92.4665902,13.6679292 L92.4665902,0.8825125 C92.4665902,0.785825 92.4279934,0.695158333 92.3518623,0.611575 C92.2743148,0.528345833 92.1818951,0.486908333 92.0710623,0.486908333 L91.2576984,0.486908333 C91.1472197,0.486908333 91.0544459,0.525866667 90.9768984,0.601658333 C90.9021836,0.677804167 90.8621705,0.7720125 90.8621705,0.8825125 L90.8621705,14.6673875 C90.8621705,14.77895 90.9021836,14.8720958 90.9768984,14.9482417 C91.0544459,15.0250958 91.1472197,15.0629917 91.2576984,15.0629917 L98.4614754,15.0629917 C98.5733705,15.0629917 98.6661443,15.0250958 98.7436918,14.9482417 C98.819823,14.8720958 98.8570033,14.77895 98.8570033,14.6673875 L98.8570033,14.0635333 C98.8570033,13.952325 98.819823,13.858825 98.7436918,13.7819708 C98.6661443,13.705825 98.5733705,13.6679292 98.4614754,13.6679292" id="Fill-13" sketch:type="MSShapeGroup"></path>
            <path d="M107.715057,0.6018 C107.638926,0.525654167 107.546152,0.48705 107.435673,0.48705 L98.6080013,0.48705 C98.4961062,0.48705 98.4019161,0.525654167 98.3272013,0.6018 C98.2500079,0.677945833 98.2124734,0.7718 98.2124734,0.882654167 L98.2124734,1.48650833 C98.2124734,1.59807083 98.2500079,1.69121667 98.3272013,1.7673625 C98.4019161,1.84421667 98.4961062,1.8821125 98.6080013,1.8821125 L102.230782,1.8821125 L102.230782,14.6675292 C102.230782,14.7642167 102.267962,14.8548833 102.344093,14.9381125 C102.421641,15.0216958 102.51406,15.0631333 102.62631,15.0631333 L103.415949,15.0631333 C103.528198,15.0631333 103.622034,15.0216958 103.698165,14.9381125 C103.77288,14.8548833 103.812893,14.7642167 103.812893,14.6675292 L103.812893,1.8821125 L107.435673,1.8821125 C107.546152,1.8821125 107.638926,1.84421667 107.715057,1.7673625 C107.792605,1.69121667 107.829785,1.59807083 107.829785,1.48650833 L107.829785,0.882654167 C107.829785,0.7718 107.792605,0.677945833 107.715057,0.6018" id="Fill-15" sketch:type="MSShapeGroup"></path>
        </g>
    </g>
</svg>