<?xml version="1.0" encoding="utf-8"?>
<!-- Generator: Adobe Illustrator 16.0.4, SVG Export Plug-In . SVG Version: 6.00 Build 0)  -->
<!DOCTYPE svg PUBLIC "-//W3C//DTD SVG 1.1//EN" "http://www.w3.org/Graphics/SVG/1.1/DTD/svg11.dtd">
<svg version="1.1" id="Layer_1" xmlns="http://www.w3.org/2000/svg" xmlns:xlink="http://www.w3.org/1999/xlink" x="0px" y="0px"
	 width="144px" height="133px" viewBox="0 0 144 133" enable-background="new 0 0 144 133" xml:space="preserve">
<g>
	<linearGradient id="SVGID_1_" gradientUnits="userSpaceOnUse" x1="127.3965" y1="132.3594" x2="127.3965" y2="94.1623">
		<stop  offset="0" style="stop-color:#3399FF;stop-opacity:0"/>
		<stop  offset="1" style="stop-color:#3399FF"/>
	</linearGradient>
	<path fill="url(#SVGID_1_)" d="M132.039,10.661c-0.541-0.625-1.21-1.129-1.991-1.498c-0.78-0.368-1.672-0.556-2.651-0.556
		s-1.871,0.188-2.652,0.556c-0.781,0.369-1.451,0.873-1.989,1.498c-0.54,0.625-0.959,1.361-1.245,2.19
		c-0.285,0.828-0.431,1.713-0.431,2.634c0,0.932,0.146,1.824,0.431,2.65c0.286,0.829,0.705,1.565,1.245,2.19
		c0.541,0.627,1.21,1.128,1.99,1.489c0.78,0.362,1.673,0.546,2.651,0.546s1.87-0.184,2.651-0.546
		c0.779-0.361,1.449-0.862,1.991-1.489c0.538-0.625,0.958-1.361,1.245-2.19c0.286-0.828,0.429-1.719,0.429-2.65
		c0-0.92-0.143-1.805-0.429-2.634C132.997,12.022,132.577,11.286,132.039,10.661z M129.027,19.683
		c-0.453,0.25-1.002,0.377-1.631,0.377s-1.178-0.126-1.629-0.377c-0.454-0.251-0.829-0.592-1.115-1.012
		c-0.289-0.431-0.507-0.926-0.646-1.475c-0.143-0.556-0.215-1.132-0.215-1.711c0-0.58,0.072-1.155,0.215-1.713
		c0.14-0.547,0.357-1.043,0.646-1.474c0.286-0.42,0.661-0.761,1.115-1.013c0.451-0.25,1-0.376,1.629-0.376s1.178,0.126,1.631,0.376
		c0.452,0.252,0.827,0.594,1.112,1.013c0.29,0.431,0.508,0.927,0.647,1.474c0.143,0.559,0.214,1.134,0.214,1.713
		c0,0.578-0.071,1.154-0.214,1.711c-0.14,0.549-0.357,1.045-0.647,1.474C129.854,19.091,129.479,19.432,129.027,19.683z"/>
	<linearGradient id="SVGID_2_" gradientUnits="userSpaceOnUse" x1="16.9429" y1="132.3594" x2="16.9429" y2="94.1623">
		<stop  offset="0" style="stop-color:#3399FF;stop-opacity:0"/>
		<stop  offset="1" style="stop-color:#3399FF"/>
	</linearGradient>
	<path fill="url(#SVGID_2_)" d="M21.586,10.661c-0.542-0.625-1.21-1.129-1.992-1.498c-0.78-0.368-1.672-0.556-2.651-0.556
		s-1.871,0.188-2.652,0.556c-0.781,0.369-1.451,0.873-1.99,1.498c-0.539,0.625-0.958,1.361-1.244,2.19
		c-0.286,0.828-0.432,1.713-0.432,2.634c0,0.932,0.146,1.824,0.432,2.65c0.286,0.829,0.705,1.565,1.244,2.19
		c0.542,0.627,1.21,1.128,1.991,1.489c0.78,0.362,1.673,0.546,2.651,0.546s1.87-0.184,2.651-0.546
		c0.779-0.361,1.449-0.862,1.992-1.489c0.537-0.625,0.957-1.361,1.244-2.19c0.286-0.828,0.43-1.719,0.43-2.65
		c0-0.92-0.144-1.805-0.43-2.634C22.543,12.022,22.124,11.286,21.586,10.661z M18.574,19.683c-0.453,0.25-1.001,0.377-1.63,0.377
		s-1.178-0.126-1.628-0.377c-0.455-0.251-0.83-0.592-1.115-1.012c-0.29-0.431-0.508-0.926-0.647-1.475
		c-0.143-0.556-0.215-1.132-0.215-1.711c0-0.58,0.072-1.155,0.215-1.713c0.14-0.547,0.357-1.043,0.647-1.474
		c0.286-0.42,0.661-0.761,1.115-1.013c0.451-0.25,1-0.376,1.628-0.376s1.178,0.126,1.63,0.376c0.453,0.252,0.828,0.594,1.112,1.013
		c0.29,0.431,0.509,0.927,0.648,1.474c0.143,0.559,0.214,1.134,0.214,1.713c0,0.578-0.071,1.154-0.214,1.711
		c-0.14,0.549-0.358,1.045-0.648,1.474C19.401,19.091,19.026,19.432,18.574,19.683z"/>
	<linearGradient id="SVGID_3_" gradientUnits="userSpaceOnUse" x1="84.7939" y1="132.3594" x2="84.7939" y2="94.1623">
		<stop  offset="0" style="stop-color:#3399FF;stop-opacity:0"/>
		<stop  offset="1" style="stop-color:#3399FF"/>
	</linearGradient>
	<polygon fill="url(#SVGID_3_)" points="98.38,66.653 97.147,64.521 71.209,79.477 72.441,81.608 	"/>
	<linearGradient id="SVGID_4_" gradientUnits="userSpaceOnUse" x1="84.7939" y1="132.3594" x2="84.7939" y2="94.1623">
		<stop  offset="0" style="stop-color:#3399FF;stop-opacity:0"/>
		<stop  offset="1" style="stop-color:#3399FF"/>
	</linearGradient>
	<polygon fill="url(#SVGID_4_)" points="98.38,35.349 72.441,20.394 71.209,22.525 97.147,37.481 	"/>
	<linearGradient id="SVGID_5_" gradientUnits="userSpaceOnUse" x1="46.5278" y1="132.3594" x2="46.5278" y2="94.1623">
		<stop  offset="0" style="stop-color:#3399FF;stop-opacity:0"/>
		<stop  offset="1" style="stop-color:#3399FF"/>
	</linearGradient>
	<rect x="45.295" y="36.046" fill="url(#SVGID_5_)" width="2.465" height="29.911"/>
	<linearGradient id="SVGID_6_" gradientUnits="userSpaceOnUse" x1="72.0396" y1="132.3594" x2="72.0396" y2="94.1623">
		<stop  offset="0" style="stop-color:#3399FF;stop-opacity:0"/>
		<stop  offset="1" style="stop-color:#3399FF"/>
	</linearGradient>
	<path fill="url(#SVGID_6_)" d="M118.844,22.594l-15.377,8.865L72.039,13.338L40.611,31.458l-15.376-8.865l-1.232,2.132
		l15.375,8.865v36.243l31.558,18.195v44.95h2.465V87.878L104.7,69.833V33.591l15.376-8.866L118.844,22.594z M41.844,33.591
		l30.195-17.41l30.195,17.41v34.82L72.039,85.82L41.844,68.411V33.591z"/>
	<linearGradient id="SVGID_7_" gradientUnits="userSpaceOnUse" x1="135.418" y1="132.3594" x2="135.418" y2="94.1623">
		<stop  offset="0" style="stop-color:#3399FF;stop-opacity:0"/>
		<stop  offset="1" style="stop-color:#3399FF"/>
	</linearGradient>
	<polygon fill="url(#SVGID_7_)" points="127.931,0.063 126.698,2.195 142.905,11.539 144.138,9.406 	"/>
	<linearGradient id="SVGID_8_" gradientUnits="userSpaceOnUse" x1="8.8574" y1="132.3594" x2="8.8574" y2="94.1623">
		<stop  offset="0" style="stop-color:#3399FF;stop-opacity:0"/>
		<stop  offset="1" style="stop-color:#3399FF"/>
	</linearGradient>
	<polygon fill="url(#SVGID_8_)" points="16.344,-0.022 0.138,9.322 1.371,11.454 17.577,2.11 	"/>
	<linearGradient id="SVGID_9_" gradientUnits="userSpaceOnUse" x1="72.0405" y1="132.3594" x2="72.0405" y2="94.1623">
		<stop  offset="0" style="stop-color:#3399FF;stop-opacity:0"/>
		<stop  offset="1" style="stop-color:#3399FF"/>
	</linearGradient>
	<polygon fill="url(#SVGID_9_)" points="91.231,63.488 92.464,61.355 72.039,49.58 51.616,61.355 52.849,63.488 72.039,52.422 	"/>
</g>
</svg>
